# xmcd
#
# Track frame offsets:
#	150
#	11834
#	24923
#	35674
#	48380
#	53132
#	64270
#	75218
#	87073
#	97782
#	108702
#	118873
#	130120
#	140403
#	157074
#	168440
#	178835
#	188004
#	203121
#	215475
#
# Disc length: 3013 seconds
#
# Revision: 0
# Processed by: cddbd v1.5.2PL0 Copyright (c) Steve Scherf et al.
# Submitted via: dBpowerAMP V4.0
#
DISCID=0f0bc314
DTITLE=Various Artist - Country Classics
DYEAR=2006
DGENRE=Country
TTITLE0=Patsy Cline - Walkin' after midhight
TTITLE1=Kenny Rogers - Ruby Don't Take Your Love To Town
TTITLE2=Billie Jo Spears - I'm So Lonesome I Could Cry
TTITLE3=Lynn Anderson - Top Of The World
TTITLE4=Willie Nelson - Where My House Lives
TTITLE5=Frankie Laine - Love Is A Golden Ring
TTITLE6=Johnny Cash And The Tennessee Two - Cry, Cry, Cry
TTITLE7=Dolly Parton - Making Believe
TTITLE8=Lynn Anderson - Heaven's Just A Sin Away
TTITLE9=Hank Williams - Why Don't You Love Me
TTITLE10=Patsy Cline - Three Cigarettes In An Ashtray
TTITLE11=Frankie Laine - Answer Me
TTITLE12=Billie Jo Spears - It Makes No Difference Now
TTITLE13=Lynn Anderson - Blue Bayou
TTITLE14=Willie Nelson - I Don't Feel Anything
TTITLE15=Waylon Jennings - Money (That's What I Want)
TTITLE16=Frankie Laine - Rawhide
TTITLE17=Rogers, Kenny - Conditions (Just Dropped In)
TTITLE18=Lynn Anderson - Stand By Your Man
TTITLE19=Patsy Cline - Honky Tonk Merry Go Round
EXTD=Demon music group\nwww.demonmusicgroup.co.uk/Product.aspx?ProductID=2793
EXTT0=
EXTT1=
EXTT2=
EXTT3=
EXTT4=
EXTT5=
EXTT6=
EXTT7=
EXTT8=
EXTT9=
EXTT10=
EXTT11=
EXTT12=
EXTT13=
EXTT14=
EXTT15=
EXTT16=
EXTT17=
EXTT18=
EXTT19=
PLAYORDER=
